<?xml version="1.0" encoding="utf-8"?>
<!-- Generator: Adobe Illustrator 19.2.1, SVG Export Plug-In . SVG Version: 6.00 Build 0)  -->
<svg version="1.1" id="layer" xmlns="http://www.w3.org/2000/svg" xmlns:xlink="http://www.w3.org/1999/xlink" x="0px" y="0px"
	 viewBox="0 0 652 652" style="enable-background:new 0 0 652 652;" xml:space="preserve">
<style type="text/css">
	.st0{fill:#20419B;}
</style>
<g>
	<path class="st0" d="M234.9,353.9c-14,0-22.5-6.9-22.5-14v-36.1c0-7.1,8.5-14,22.5-14c9,0,15.5,1.7,19.3,3.7v5.6
		c-2.1-0.9-9.7-4-19.3-4c-10.2,0-15.2,5.2-17.2,8.2v37.2c2,3,7,8.2,17.2,8.2c7.2,0,12.9-1.7,16.2-2.9v-21.3h-12.6
		c-1.5,0-2.7-1.1-2.7-2.6c0-1.5,1.2-2.7,2.7-2.7h17.9v30C252.7,351.9,244,353.9,234.9,353.9"/>
	<path class="st0" d="M268,353.3v-60.8c0-1.5,1.2-2.6,2.6-2.6c1.5,0,2.7,1.1,2.7,2.6v60.8H268z"/>
	<path class="st0" d="M301,353.9c-7.7,0-17.9-3.2-17.9-10.9v-24c0-7.6,10.2-10.9,17.9-10.9c7.6,0,17.9,3.2,17.9,10.9v24
		C318.9,350.6,308.7,353.9,301,353.9 M313.6,318.4c-2.6-3.1-6.8-5-12.6-5c-5.8,0-10,1.9-12.7,5v25.2c2.6,3,6.9,5.1,12.7,5.1
		c5.8,0,10-2.1,12.6-5.1V318.4z"/>
	<path class="st0" d="M347.8,353.9c-7.7,0-18-3.2-18-10.9v-50.6c0-1.4,1.2-2.6,2.7-2.6c1.5,0,2.6,1.1,2.6,2.6v18.7
		c3.7-2,9.3-3,13.5-3c7.6,0,17.1,3.2,17.1,10.9v24C365.7,350.6,355.4,353.9,347.8,353.9 M360.4,318.4c-2.6-3.1-6.1-5-11.8-5
		c-5.8,0-10.8,1.9-13.5,5v25.2c2.7,3,6.9,5.1,12.7,5.1c5.7,0,10-2.1,12.6-5.1V318.4z"/>
	<path class="st0" d="M395.3,353.9c-8.6,0-19.9-1.8-19.9-9.1v-7.6c0-6,7.8-7,14.9-8.8l15.6-3.6v-6.3c-2.7-3.1-6.9-5-12.7-5
		c-5.8,0-12.1,1.7-13.9,2.3v-5.5c3.1-1.4,9.9-2,13.9-2c7.7,0,17.9,3.2,17.9,10.9v32.5C407.3,352.6,401.2,353.9,395.3,353.9
		 M406,330.2l-14.5,3.3c-8.2,1.9-10.1,2.2-10.8,3.5v7.9c2.7,3.1,7.3,3.8,14.6,3.8c2.9,0,7-0.8,10.7-1.5V330.2z"/>
	<path class="st0" d="M422.5,353.3v-60.8c0-1.5,1.1-2.6,2.6-2.6c1.5,0,2.7,1.1,2.7,2.6v60.8H422.5z"/>
	<path class="st0" d="M499.2,353.3h-32.8v-60.2c0-1.5,1.1-2.7,2.6-2.7h28c7.2,0,11.9,8.8,11.9,16.5c0,4.6-1.6,10.4-4.4,14.1
		c4.1,3.1,6.5,9.5,6.5,15.2C510.9,344,506.4,353.3,499.2,353.3 M498.4,295.7h-26.8v23.4h27.5c2.5-2.7,4.3-6.8,4.3-12.2
		C503.5,301.1,501.4,298.4,498.4,295.7 M500.6,324.4h-29V348h29c2.8-2.7,5-5.9,5-11.8C505.7,330.4,503.5,327.1,500.6,324.4"/>
	<path class="st0" d="M521.3,353.3v-60.8c0-1.5,1.1-2.6,2.6-2.6c1.5,0,2.7,1.1,2.7,2.6v60.8H521.3z"/>
	<path class="st0" d="M556.2,353.9c-7.8,0-18-3.2-18-10.9v-34.3h5.3v34.8c2.7,3,6.9,5.1,12.7,5.1c5.7,0,10-2,12.6-5.1v-34.8h5.3V343
		C574.1,350.6,563.8,353.9,556.2,353.9"/>
	<path class="st0" d="M589.5,333.7v9.9c2.6,3,6.9,5.1,12.6,5.1c6.5,0,10-1.1,12.6-2c1.4-0.5,2.9,0.2,3.3,1.6
		c0.5,1.4-0.2,2.8-1.6,3.3c-4.4,1.6-8.2,2.3-14.3,2.3c-7.7,0-17.9-3.2-17.9-10.9v-24c0-7.6,10.2-10.9,17.9-10.9
		c7.6,0,17.9,3.2,17.9,10.9v14.7H589.5z M602.1,313.4c-5.7,0-10,1.9-12.6,5v9.9h25.2v-9.9C612.1,315.3,607.8,313.4,602.1,313.4"/>
	<path class="st0" d="M173.9,329.9l-0.3-0.2l-0.3-0.2l-0.5-0.5l-0.4-0.3c-0.3-0.2-7.1-5.9-19.5-12.6c5.7-5,11.2-10.4,16.3-16.1
		l0.4-0.4l0.5-0.6l0.3-0.3l0.3-0.3l0.1-0.1l-0.2,0l-0.4,0l-0.4,0l-0.8-0.1l-0.6,0c0,0-0.8-0.1-2.3-0.3c-3.4-0.4-10.2-1.6-18.4-4.3
		c1.4-6.5,3.5-13.2,6.4-19.8l0.2-0.6l0.3-0.8l0.2-0.4l0.2-0.4l0.1-0.2l-0.2,0l-0.4,0.1l-0.4,0.1l-0.8,0.2l-0.7,0.2
		c-0.1,0-0.5,0.1-1.2,0.3c-3.1,0.8-11.6,2.8-23.1,4.5c0.5-5.2,0.8-10.9,1-16.7l0-5.9l0-0.7v-0.4v-0.3v-0.2l-0.2,0.1l-0.6,0.4
		l-0.6,0.4l-0.4,0.3c-0.1,0-8.2,4.8-18.1,13.9c-4.6-6-8.2-12.7-10.6-20.1l-0.2-0.6l-0.3-0.8L98,245l-0.1-0.2l-0.1,0.2l-0.3,0.3
		l-0.2,0.4l-0.5,0.7l-0.4,0.5c-0.5,0.8-5.2,7.9-11.4,20.3c-5.4-4.9-11.2-9.5-17.2-13.8l-0.5-0.3l-0.6-0.4l-0.3-0.2l-0.3-0.2
		l-0.1-0.1l0,0.2l0,0.4l0,0.4l0,0.7l0,0.6c0,0-0.1,1-0.2,2.9c-0.3,3.5-1,10.6-2.4,19.6c-7.8-1.4-15.1-3.4-21.7-5.9l-0.9-0.4
		l-1.2-0.5l-0.6-0.2l-0.6-0.2l-0.3-0.1l0.2,0.3l0.4,0.5l0.4,0.5l0.7,1.1l0.6,0.8c0,0,0.1,0.2,0.3,0.4c1.1,1.7,6.5,10.7,6.8,21.5
		c-7.2,0.6-14.6,1.6-21.8,2.9l-0.6,0.1l-0.7,0.1l-0.4,0.1l-0.4,0.1l-0.2,0l0.1,0.1l0.3,0.3l0.2,0.3l0.5,0.5l0.4,0.4
		c0.3,0.3,6.7,7.1,16.1,14.8c-4.1,5.3-10.3,9.9-18.3,13.8l-0.6,0.3l-0.8,0.4l-0.4,0.2l-0.4,0.2l-0.2,0.1l0.2,0.1l0.4,0.2l0.4,0.2
		l0.8,0.3l0.6,0.3c0.1,0,1.3,0.5,3.2,1.4c3.9,1.7,10.1,4.5,17.6,8.3c-3.6,6.7-7.5,12.6-11.8,17.8l-0.4,0.4l-0.5,0.6l-0.2,0.3
		l-0.2,0.3l-0.1,0.1l0.2,0l0.4,0l0.4,0l0.8,0l0.4,0c0.2,0,2.2,0.1,4.8,0.1c3.9,0,10.2-0.2,18.3-1.2c-1.2,7.1-2.3,14.2-3.1,21.4
		l-0.1,0.6l-0.1,0.8l0,0.4l-0.1,0.4l0,0.2l0.2-0.1l0.4-0.2l0.3-0.2l0.7-0.4l0.6-0.3c0.6-0.3,1.3-0.7,1.8-0.9c3-1.5,9.3-4.4,18.2-7.7
		c1.4,6.7,3.5,13.7,6.2,20.6l0.3,0.7l0.3,0.9l0.2,0.5l0.2,0.5l0.1,0.2l0.1-0.2l0.2-0.4l0.2-0.4l0.4-0.9l0.3-0.7
		c0.1-0.1,0.2-0.4,0.4-0.8c1.1-1.9,4.1-7,9.2-11.5c2-1.8,4.1-3.3,6.3-4.5c6.9,6.5,11.7,14.2,13.6,18.1c1.1,2.3,1.8,4.1,1.8,4.1
		l0.2-2.5c0.2-2.2,0.3-2.9,0.4-4.1c0.4-3.5,1.6-10.6,5.5-19c6.6,1.2,13.6,4.2,20.9,9l0.5,0.3l0.7,0.4l0.3,0.2l0.3,0.2l0.2,0.1l0-0.2
		l0-0.4l0-0.4l0-0.8l0-0.6c-0.1-0.9-0.6-9.4-3.6-22c3.3-0.2,6.6-0.2,9.7-0.2c4.4,0,8.8,0.1,13,0.5l0.8,0.1l1.1,0.1l0.6,0l0.5,0
		l0.3,0l-0.2-0.2l-0.4-0.4l-0.4-0.4l-0.8-0.8l-0.6-0.6c0,0-0.2-0.2-0.7-0.8c-1.9-2.1-6.6-7.9-10.5-17c6.1-3.5,12.9-6.5,20.3-8.9
		l0.5-0.2l0.7-0.2l0.3-0.1l0.3-0.1l0.2-0.1L173.9,329.9z M165.8,300c-4.8,5.2-9.9,10.2-15.3,14.8c-1.5-0.8-3.1-1.6-4.7-2.4
		c0-0.7,0-1.3,0-2c0-4.8,0.5-9.8,1.4-14.8C155.7,298.4,162.9,299.6,165.8,300 M71.7,353.1c-2.8-1.8-5.7-3.5-8.7-5.2
		c-0.9-0.5-1.8-1-2.6-1.5c1.2-5.4,2.5-10.9,3.9-16.3c2.9,1.5,5.7,2.7,8.4,3.7c-0.7,4.9-1.1,9.9-1.1,14.9
		C71.6,350.1,71.6,351.6,71.7,353.1 M58.4,355.9l1.4-7.1c3,1.7,6,3.5,9,5.3L58.4,355.9z M62,329c-1.4,5.3-2.7,10.8-3.9,16.2
		c-3.7-2.1-7.6-4.1-11.4-6.1c2.4-4.7,4.7-9.8,6.8-15.2C56.4,325.7,59.2,327.4,62,329 M54.3,321.5c2.9-7.7,5.4-16.2,7.5-25
		c0.6,0,1.3,0,1.9,0c2.8,0,5.7,0.1,8.6,0.2c-3.7,9.8-7,19.8-9.7,29.9C59.9,325.1,57.1,323.3,54.3,321.5 M64.9,327.7
		c2.9-10.5,6.3-20.9,10.1-31c3.4,0.2,6.8,0.5,10.2,0.9c-6,10.7-10.1,22.1-12.1,33.8C70.4,330.4,67.6,329.2,64.9,327.7 M86.4,295.3
		c-3.5-0.4-7-0.7-10.6-0.9c1.3-3.4,2.7-6.9,4.2-10.3c0.4-0.9,0.8-1.8,1.2-2.7c3.7,0.2,7.6,0.3,11.5,0.3c1.1,0,2.2,0,3.2,0
		C92.4,286.1,89.2,290.7,86.4,295.3 M97.7,283.4c4.5,5.1,8.8,10.6,12.6,16.3c-7-1.7-14.1-3.1-21.2-4
		C91.6,291.5,94.5,287.3,97.7,283.4 M87.7,297.9c8.3,1,16.6,2.6,24.6,4.7c2,3,3.9,6.1,5.7,9.2c-1.1,2.7-2.4,5.2-3.7,7.4
		c-6.2,10.2-14.6,15.4-25.2,15.4c-4.2,0-8.8-0.8-13.7-2.5C77.3,320.3,81.5,308.8,87.7,297.9 M115.9,303.6c1.6,0.4,3.1,0.9,4.6,1.4
		c-0.4,1.4-0.9,2.7-1.3,4C118.1,307.2,117,305.4,115.9,303.6 M113.9,300.6c-4.4-6.7-9.3-13-14.6-19c6.2-0.2,12.7-0.6,19.3-1.4
		c2,1.6,4.1,3.2,6.3,4.6c-0.9,6.6-2.1,12.6-3.6,17.8C118.8,302,116.3,301.2,113.9,300.6 M122,279.8c1.1-0.1,2.3-0.3,3.5-0.4
		c-0.1,0.9-0.2,1.9-0.3,2.8C124.1,281.4,123,280.6,122,279.8 M122.8,305.8c6.8,2.2,13.4,4.8,19.7,7.7c0.3,0.2,0.7,0.3,1,0.5
		c0.1,2.1,0.3,4.2,0.5,6.2c-4.6,3.6-9.3,6.9-14.2,10c-2.7-6.3-5.7-12.5-9-18.4C121.5,309.9,122.2,307.8,122.8,305.8 M129.8,337
		c1.6,4.1,3,8.4,4.3,12.6c-2.7,2.6-5.2,5.3-7.4,8.1c-12.4,1.4-25,3.9-37.6,7.6c-4.2-3.3-9-6.6-14.1-10c19.1-4.4,37.1-11.7,53.5-21.6
		C129,334.7,129.4,335.8,129.8,337 M134.9,352.2c0.4,1.5,0.9,3.1,1.2,4.7c-2,0.1-4,0.3-6,0.5C131.6,355.6,133.2,353.8,134.9,352.2
		 M136.1,347.7c-1.6-5.2-3.4-10.3-5.5-15.3c4.7-2.9,9.3-6.1,13.7-9.5c0.9,5.4,2.3,10.6,4.3,15.6
		C144.1,341.3,139.9,344.4,136.1,347.7 M146,315.1c0.9,0.4,1.8,0.9,2.6,1.3c-0.8,0.7-1.6,1.3-2.3,1.9
		C146.1,317.3,146,316.2,146,315.1 M128,279c11-1.6,19.5-3.5,22.8-4.3c-2.4,5.9-4.3,11.9-5.6,17.7c-4.2-1.5-8.2-3.3-11.9-5.3
		c-2-1.1-4-2.3-5.9-3.5C127.7,282.2,127.8,280.6,128,279 M138.3,292.2c2.1,0.9,4.3,1.8,6.6,2.6c-1,5.3-1.5,10.5-1.5,15.6
		c0,0.3,0,0.5,0,0.8c-6.4-2.9-13.1-5.6-19.9-7.8c1.5-5.1,2.7-10.9,3.6-17.1C130.6,288.5,134.3,290.4,138.3,292.2 M120.1,261.4
		c2.1-1.6,4.2-3.1,6.2-4.4l0.1-0.1l0.4-0.2l0.1,3.2c-0.2,6-0.6,11.8-1.1,17.1c-2.2,0.3-4.4,0.6-6.4,0.8c-3.1-2.6-6-5.5-8.5-8.5
		C113.8,266.4,117,263.8,120.1,261.4 M116,278.1c-5,0.5-10.2,0.9-15.1,1l0.1-0.1c2.4-2.8,5.3-5.5,8.1-8.1
		C111.2,273.4,113.5,275.8,116,278.1 M93,257.5c1.8-3.2,3.2-5.5,4.1-6.9c0.1-0.1,0.1-0.2,0.2-0.2c2.5,6.8,5.9,13.1,10.3,18.6
		c-2.8,2.7-4.9,5-7.8,8.2c-0.5,0.5-2,2.2-2,2.2c-3.2-3.5-7.3-7.2-10.7-10.4C89,264.9,91.1,261.1,93,257.5 M85.9,271.3
		c2.8,2.6,5.6,5.3,8.2,8h-1.4c-3.5,0-7-0.1-10.4-0.3C83.4,276.4,84.7,273.8,85.9,271.3 M68.2,256.7c5.6,4,10.8,8.3,15.8,12.8
		c-1.5,3-2.9,6.2-4.3,9.3c-4.9-0.3-9.5-0.9-14-1.6C67.3,267.4,68,259.8,68.2,256.7 M65.3,279.7c4.3,0.7,8.8,1.2,13.4,1.5
		c-1.9,4.3-3.7,8.7-5.4,13.1c-3.1-0.2-6.3-0.2-9.5-0.2c-0.5,0-0.9,0-1.4,0C63.5,289.4,64.5,284.6,65.3,279.7 M43.9,274.4
		c5.8,2,12.2,3.7,18.9,4.8c-0.9,5-1.9,10-3,14.8c-3.4,0.1-6.8,0.2-10.2,0.5C49.4,285.9,46,278.3,43.9,274.4 M49.6,297
		c3.2-0.2,6.5-0.4,9.7-0.5c-2,8.3-4.4,16.2-7.1,23.6c-1.7-1.2-3.4-2.4-5-3.6c-1-0.8-2.1-1.6-3.1-2.4C47.5,308.9,49.4,303.1,49.6,297
		 M32.3,303.8c-1.5-1.4-2.9-2.8-4.3-4.1c6.4-1.1,12.8-2,19.2-2.5c-0.3,5.5-2,10.7-5,15.3C38.8,309.7,35.5,306.8,32.3,303.8
		 M25.9,329.2c7.2-3.7,12.8-8.2,16.8-13.3c1,0.8,2,1.6,3.1,2.4c1.9,1.4,3.8,2.8,5.6,4.1c-2.1,5.5-4.4,10.7-6.9,15.5
		C36.1,333.7,29.3,330.7,25.9,329.2 M37.1,357.5c-0.7,0-1.4,0-2.1,0c3.8-4.8,7.3-10.3,10.5-16.3c4.1,2.1,8.1,4.3,12,6.4
		c-0.6,2.8-1.2,5.8-1.7,8.7C47.6,357.3,41.1,357.5,37.1,357.5 M55,378.2c0.8-6.6,1.8-13.2,2.9-19.8c4.6-0.6,9.2-1.4,13.8-2.4
		l0.1,0.1l0,0c0.3,4.7,1,9.5,1.9,14.2C64.4,373.7,57.7,376.9,55,378.2 M74.1,353.1c-0.1-1.5-0.1-2.9-0.1-4.4c0-4.7,0.3-9.4,1-14
		c5,1.6,9.8,2.5,14.2,2.5c11.5,0,20.7-5.6,27.3-16.6c1.1-1.8,2.1-3.8,3.1-5.9c3,5.4,5.7,11.1,8.1,16.8
		C111.2,341.4,93.2,348.7,74.1,353.1 M74.4,357.8c4.2,2.8,8.2,5.6,11.8,8.3c-3.5,1-6.9,2.2-10.2,3.3
		C75.3,365.6,74.7,361.7,74.4,357.8 M88.4,381.3c-3.3,3.4-5.6,6.8-6.7,8.6c-2.2-6.1-4-12.1-5.2-18.1c4-1.4,8-2.7,12.1-3.9
		c2.9,2.3,5.6,4.6,8.1,6.9C93.7,376.6,90.9,378.7,88.4,381.3 M112.3,389.9c-2.7-4.7-6.6-9.6-11.5-14.5c4-1.9,8.4-2.8,12.9-2.8
		c1.2,0,2.5,0.1,3.8,0.2C114.2,380.2,112.8,386.6,112.3,389.9 M119.8,368.3c-0.4,0.7-0.8,1.5-1.2,2.3c-1.6-0.2-3.2-0.3-4.9-0.3
		c-5.2,0-10.1,1.1-14.7,3.4c-2.3-2.1-4.8-4.3-7.5-6.5c11.1-3.1,22.3-5.4,33.3-6.8C122.9,362.9,121.2,365.6,119.8,368.3 M140,377.9
		c0,0.3,0.1,0.7,0.1,0.9c-6.6-4-13-6.7-19.1-7.9c1.9-3.9,4.3-7.6,6.9-11c2.9-0.3,5.9-0.6,8.7-0.7c0.8,3.2,1.4,6.3,2,9.4
		C139.3,371.9,139.8,375,140,377.9 M159.2,356.7c-3.4-0.2-6.8-0.3-10.3-0.3c-3.4,0-6.9,0.1-10.3,0.3c-0.5-2.1-1.1-4.3-1.8-6.4
		c3.8-3.5,8.1-6.7,12.7-9.5C153,348.6,157,354.1,159.2,356.7 M150.8,337.3c-2-5.1-3.4-10.6-4.2-16.1c1.4-1.1,2.9-2.3,4.3-3.5
		c4.5,2.4,8.7,4.9,12.7,7.5c1.9,1.3,3.8,2.6,5.4,3.8l0.1,0.1C162.5,331.4,156.4,334.1,150.8,337.3"/>
</g>
</svg>
