<svg width="24" height="24" viewBox="0 0 24 24" fill="none" xmlns="http://www.w3.org/2000/svg">
<path fill-rule="evenodd" clip-rule="evenodd" d="M5.12117 18.8493C4.73065 18.4587 4.73065 17.8256 5.12117 17.435L17.8491 4.70712C18.2396 4.3166 18.8728 4.3166 19.2633 4.70712C19.6538 5.09765 19.6538 5.73081 19.2633 6.12134L6.53538 18.8493C6.14486 19.2398 5.51169 19.2398 5.12117 18.8493Z" fill="#4754EB"/>
<path fill-rule="evenodd" clip-rule="evenodd" d="M4.70696 4.84926C5.09748 4.45873 5.73065 4.45873 6.12117 4.84926L18.8491 17.5772C19.2396 17.9677 19.2396 18.6009 18.8491 18.9914C18.4586 19.3819 17.8254 19.3819 17.4349 18.9914L4.70696 6.26347C4.31643 5.87295 4.31643 5.23978 4.70696 4.84926Z" fill="#4754EB"/>
</svg>
