<?xml version="1.0" encoding="utf-8"?><svg viewBox="0 0 512 512" xmlns="http://www.w3.org/2000/svg" xmlns:xlink="http://www.w3.org/1999/xlink"><style>:root>svg{display:none}:root>svg:target{display:block}</style><svg viewBox="0 0 74 74" id="22" xmlns="http://www.w3.org/2000/svg"><g data-name="color line"><path d="M29.173 60.553a9.1 9.1 0 01-5.1 5.986l-.208.095a6.508 6.508 0 00-3.823 5.741c-.1-.2-2.256-5.4-.886-7.4a6.958 6.958 0 01-3.67 1.111c-3.379.106-5.375 5.709-5.451 5.883-.074-.216-2.1-7.566 2.9-10 0 0 2.091-1.113 1.483-2.868-1.071-1.959-5.356.5-5.487.582a18.587 18.587 0 015-8.438 8.89 8.89 0 012.977-1.835" fill="#fcd462"/><path d="M19.052 65.086a9.038 9.038 0 01-3.562 1c-3.372.261-5.38 5.71-5.46 5.88a13.972 13.972 0 01-.46-3.72v-.01c.88-1.72 2.5-4.14 4.71-4.21a13.685 13.685 0 005.162-1.761zM29.17 60.557a9.062 9.062 0 01-5.1 5.98c-.07.03-.13.07-.2.1a6.532 6.532 0 00-3.83 5.74 18.925 18.925 0 01-1.05-3.24v-.03a6.259 6.259 0 013.67-4.53 2 2 0 01.21-.1 9.073 9.073 0 004.86-5.23z" fill="#f7be56"/><path d="M25.937 57.613a4.247 4.247 0 01-2.381 2.8l-.1.044a3.039 3.039 0 00-1.785 2.681c-.047-.094-1.053-2.521-.414-3.454a3.249 3.249 0 01-1.714.519c-1.578.049-2.51 2.666-2.546 2.747-.035-.1-.98-3.533 1.352-4.67 0 0 .977-.52.693-1.339-.5-.915-2.5.233-2.562.272a8.68 8.68 0 012.336-3.94 4.151 4.151 0 011.39-.857zM27.969 25.916c-6.73-1.871-14.834 1.562-18.573 7.271a13.983 13.983 0 00-2.078 5.232 15.221 15.221 0 0113.056-1.732" fill="#fe7058"/><path d="M7.318 38.919a.5.5 0 01-.492-.588 14.384 14.384 0 012.151-5.419c3.977-6.068 12.378-9.354 19.125-7.478a.5.5 0 01-.268.964c-6.349-1.767-14.269 1.335-18.021 7.063a13.326 13.326 0 00-1.753 3.918 15.918 15.918 0 0112.465-1.168.5.5 0 01-.3.953A14.806 14.806 0 007.6 38.834a.5.5 0 01-.282.085z" fill="#323c6b"/><path d="M51.064 46.893c2.508 6.52-.133 14.915-5.456 19.185a13.983 13.983 0 01-5.009 2.57 15.221 15.221 0 00.472-13.161" fill="#fe7058"/><path d="M45.61 66.077a13.978 13.978 0 01-5.01 2.57 14.276 14.276 0 001.53-4.53 12.191 12.191 0 001.27-.9 18.212 18.212 0 006.35-15.19v-.01l1.31-1.12c2.51 6.52-.13 14.91-5.45 19.18z" fill="#ea6453"/><path d="M68.614 4.375a65.741 65.741 0 01-2.03 14.1 13.8 13.8 0 01-7.6-3.51 13.893 13.893 0 01-4.22-7.22 66.342 66.342 0 0113.85-3.37z" fill="#fe7058"/><path d="M66.584 18.475c-1.94 7.9-5.77 17.79-13.28 26.05a69.023 69.023 0 01-18.8 14.99L16.994 43.6a69.166 69.166 0 0113.12-20.15c7.51-8.27 16.98-13.02 24.65-15.71a13.893 13.893 0 004.22 7.22 13.8 13.8 0 007.6 3.515z" fill="#eeefee"/><path d="M68.61 4.377a65.736 65.736 0 01-2.03 14.1 14.026 14.026 0 01-3.04-.73c.03-.1.06-.2.08-.3a70.4 70.4 0 001.97-12.6c1.91-.36 3.02-.47 3.02-.47z" fill="#ea6453"/><path d="M66.58 18.477c-1.94 7.9-5.77 17.79-13.28 26.05a69.023 69.023 0 01-18.8 14.99l-1.81-1.65A70.272 70.272 0 0050.34 43.5c7.42-8.16 11.24-17.9 13.2-25.75a14.026 14.026 0 003.04.727z" fill="#e1e6e9"/><path d="M31.056 62.265l-16.47-14.959 4.132-2.134 14.065 12.776z" fill="#84879c"/><path d="M31.056 62.766a.5.5 0 01-.336-.13l-16.47-14.96a.5.5 0 01.106-.814l4.132-2.133a.5.5 0 01.565.074l14.066 12.775a.5.5 0 01.128.556l-1.727 4.317a.5.5 0 01-.352.3.518.518 0 01-.112.015zm-15.6-15.346l15.4 13.992 1.331-3.327-13.548-12.309z" fill="#323c6b"/><circle cx="51.76" cy="22.926" fill="#05afd6" r="6.127" transform="rotate(-47.76 51.773 22.934)"/><g fill="#323c6b"><path d="M51.757 29.55a6.624 6.624 0 114.909-2.168 6.6 6.6 0 01-4.909 2.168zm.009-12.25c-.092 0-.184 0-.275.007a5.589 5.589 0 00-3.9 1.837 5.626 5.626 0 104.175-1.844zM26.711 41.708a.5.5 0 01-.37-.836l7.744-8.526a.5.5 0 11.74.672l-7.744 8.526a.5.5 0 01-.37.164zM35.964 50.112a.5.5 0 01-.37-.836l7.744-8.526a.5.5 0 11.74.672l-7.744 8.526a.5.5 0 01-.37.164zM33.267 43.786a.5.5 0 01-.37-.836l7.744-8.526a.5.5 0 11.74.672l-7.744 8.526a.5.5 0 01-.37.164zM66.156 30a.5.5 0 01-.462-.691c.12-.29.235-.579.35-.868a.5.5 0 11.93.368c-.116.293-.233.587-.355.882a.5.5 0 01-.463.309zM60.066 41.25a.5.5 0 01-.412-.783 59.682 59.682 0 004.833-8.429.5.5 0 01.906.425 60.8 60.8 0 01-4.915 8.571.5.5 0 01-.412.216zM4.729 36.813a.5.5 0 01-.481-.633 17.312 17.312 0 012.226-4.917 18.879 18.879 0 012.6-3.12.5.5 0 11.7.715 17.9 17.9 0 00-2.462 2.954 16.33 16.33 0 00-2.1 4.635.5.5 0 01-.483.366zM11.214 27.428a.5.5 0 01-.306-.9c.25-.193.509-.376.769-.558a.5.5 0 11.574.818c-.246.173-.493.348-.731.532a.5.5 0 01-.306.108zM66.584 18.975a.52.52 0 01-.062 0 14.267 14.267 0 01-7.874-3.636 14.342 14.342 0 01-4.372-7.479.5.5 0 01.321-.583 67.613 67.613 0 0113.967-3.4.515.515 0 01.386.123.5.5 0 01.164.372A66.99 66.99 0 0167.069 18.6a.5.5 0 01-.485.375zM55.357 8.068a13.357 13.357 0 003.963 6.527 13.284 13.284 0 006.886 3.322A68.48 68.48 0 0068.1 4.942a69.067 69.067 0 00-12.743 3.126z"/><path d="M34.5 60.015a.5.5 0 01-.336-.13l-17.51-15.91a.5.5 0 01-.129-.555 70.042 70.042 0 0113.215-20.3C37.595 14.474 47.593 9.73 54.6 7.273a.5.5 0 01.652.361 13.355 13.355 0 004.069 6.96 13.274 13.274 0 007.325 3.384.5.5 0 01.424.615C65.3 25.8 61.537 36.212 53.674 44.861a69.9 69.9 0 01-18.942 15.1.492.492 0 01-.232.054zM17.588 43.469l17 15.442a69.334 69.334 0 0018.346-14.722c7.531-8.283 11.235-18.229 13.031-25.3a14.274 14.274 0 01-7.316-3.556A14.342 14.342 0 0154.411 8.4C47.547 10.869 38 15.511 30.484 23.791a69.438 69.438 0 00-12.896 19.678z"/><path d="M40.6 69.148a.5.5 0 01-.44-.737 14.806 14.806 0 00.452-12.729.5.5 0 11.92-.392 15.926 15.926 0 01.032 12.519 13.326 13.326 0 003.731-2.121c5.342-4.285 7.67-12.461 5.3-18.616a.5.5 0 11.934-.359c2.515 6.538.051 15.214-5.61 19.754a14.386 14.386 0 01-5.187 2.661.493.493 0 01-.132.02zM20.04 72.872a.5.5 0 01-.44-.272c-.022-.044-1.739-3.966-1.334-6.593a7.356 7.356 0 01-2.763.581c-2.672.083-4.482 4.23-4.974 5.5a.525.525 0 01-.488.352.489.489 0 01-.476-.306c-.027-.078-2.327-7.943 3.149-10.612.053-.029 1.689-.93 1.229-2.255a.9.9 0 00-.554-.363c-1.29-.344-3.762.938-4.193 1.2a.5.5 0 01-.537-.005.5.5 0 01-.225-.485 19.043 19.043 0 015.158-8.737 9.334 9.334 0 013.145-1.937.5.5 0 11.346.938 8.339 8.339 0 00-2.81 1.731A18.055 18.055 0 009.75 58.7a6.642 6.642 0 013.873-.768 1.89 1.89 0 011.229.932c.626 1.784-.833 3.094-1.687 3.549-3.348 1.632-3.277 5.7-2.957 7.911.985-2.023 2.746-4.656 5.263-4.734a6.44 6.44 0 003.427-1.04.5.5 0 01.671.711c-.742 1.084-.217 3.507.3 5.187a6.61 6.61 0 013.8-4.272l.2-.09a8.634 8.634 0 004.824-5.661.5.5 0 01.967.259A9.633 9.633 0 0124.278 67l-.2.093a5.969 5.969 0 00-3.534 5.274.5.5 0 01-.381.495.528.528 0 01-.123.01z"/></g></g></svg><svg viewBox="0 0 511.792 511.792" id="23" xmlns="http://www.w3.org/2000/svg"><path fill="#ced6e0" d="M344.533 300.592l-89.6 89.6 44.8 44.8 44.8-44.8z"/><path d="M429.867 318.725c-29.867-5.333-60.8 4.267-82.133 26.667L236.8 455.258l56.533 56.533L403.2 401.925c21.333-22.4 32-52.267 26.667-83.2z" fill="#f3705a"/><path fill="#415a6b" d="M311.95 492.812l-18.856 18.855-55.813-55.813 18.855-18.856z"/><path fill="#ced6e0" d="M208 167.258h-86.4l-44.8 44.8 42.667 43.734z"/><path d="M193.067 81.925c5.333 29.867-4.267 60.8-26.667 82.133L56.533 274.992 0 218.458l109.867-109.867c22.4-21.333 52.266-31.999 83.2-26.666z" fill="#f3705a"/><path fill="#415a6b" d="M75.293 255.66l-18.855 18.855L.624 218.702l18.856-18.856z"/><path d="M510.933.858c-90.667-6.4-180.267 26.667-245.333 91.733l-166.4 166.4 153.6 153.6 167.467-167.467c64-63.999 97.066-153.599 90.666-244.266z" fill="#f3f3f3"/><path d="M477.867 166.192C503.467 116.059 515.2 58.459 510.934.859c-57.6-4.267-115.2 7.467-165.333 33.067l132.266 132.266z" fill="#f3705a"/><circle cx="310.4" cy="205.658" r="65.067" fill="#415a6b"/><circle cx="310.4" cy="205.658" r="48" fill="#8ad7f8"/><path d="M174.933 441.392c6.4-10.667 9.6-23.467 13.867-35.2 4.267-11.733 10.667-24.533 21.333-32l2.133-2.133-73.6-72.533-2.133 2.133c-7.467 10.667-20.267 17.067-32 21.333s-23.467 7.467-35.2 13.867c-10.667 6.4-20.267 19.2-20.267 29.867 6.4-10.667 18.133-19.2 29.867-21.333C54.4 366.725 73.6 379.525 44.8 406.192c12.8-2.133 23.467-11.733 33.067-21.333s20.267-20.267 33.067-23.467c-53.333 53.333-72.533 112-72.533 112s67.2-28.8 112-72.533c-3.2 12.8-13.867 22.4-23.467 33.067-9.6 9.6-20.267 21.333-21.333 33.067 26.667-28.8 39.467-9.6 60.8-34.133-2.133 11.733-10.667 23.467-21.333 29.867 11.732-.002 23.465-9.602 29.865-21.335z" fill="#ffd15c"/><path d="M157.867 318.725c-6.4 2.133-12.8 5.333-16 6.4-11.733 5.333-24.533 10.667-34.133 20.267 6.4-6.4 14.933-6.4 22.4-5.333 7.467 1.067 16 2.133 23.467-2.133-24.533 20.267-43.733 48-53.333 76.8 7.467-12.8 21.333-21.333 34.133-28.8s26.667-12.8 38.4-23.467c-2.133 13.867-5.333 27.733-7.467 41.6 13.867-12.8 25.6-28.8 34.133-44.8l-41.6-40.534z" fill="#f3705a"/></svg><svg viewBox="0 0 508.1 508.1" id="rock" xmlns="http://www.w3.org/2000/svg"><path d="M150.15 483.1s11.5-10.4 10.9-32.8c0 0-49.7 46.8-86.5 50.8 0 0-2.9-10.9 6.9-33.9 0 0-37.7 7.1-54.7 13.9 6.9-16.8 14-54.5 14-54.5-22.9 9.9-33.9 6.9-33.9 6.9 4-36.8 50.8-86.5 50.8-86.5-22.4-.5-32.8 10.9-32.8 10.9-11.6-65.2 75.5-65.6 75.5-65.6l115.3 115.3c.1.1-.4 87-65.5 75.5z" fill="#f6b44b"/><path d="M103.65 295.6c-13.8.9-41.2 5.7-54.1 21.2-3.8 4.5-6.1 9.7-7.1 15.6 6.1-2.1 13.7-3.7 23-3.5l23.7.6-16.2 17.3c-10.6 11.2-36.1 42.2-45 68 4.2-.9 9.6-2.5 16.2-5.4l18.2-7.8-3.7 19.5c-.2 1.1-3.7 19.4-8.2 36.5 17-4.5 35.4-7.9 36.5-8.1l19.5-3.7-7.8 18.2c-2.8 6.6-4.5 12-5.4 16.2 25.8-9 56.8-34.5 68-45l17.3-16.2.6 23.7c.2 9.3-1.3 16.9-3.4 23 5.9-1 11-3.3 15.5-7.1 16.8-14 20.4-43.2 21.2-54.2l-108.8-108.8z" fill="#ffd15c"/><path d="M305.45 202.6c-42.8-42.8-101.7-59.5-157.1-50.2-35.6 6-69.7 22.7-97.1 50.2C21.85 232 4.85 269.1.05 307.4c2.2-2.6 4.6-5.3 7.2-7.8 25.1-25.1 57.2-38.8 90.1-41.2 39.8-3 80.7 10.8 111.2 41.2s44.2 71.3 41.2 111.2c-2.4 32.8-16.1 65-41.2 90.1-2.5 2.5-5.2 4.9-7.8 7.2 38.3-4.8 75.4-21.8 104.8-51.2 27.5-27.5 44.2-61.6 50.2-97.1 9.2-55.5-7.6-114.5-50.3-157.2z" fill="#41596b"/><path d="M459.95 0c-24.9 0-49.3 2.5-72.8 7.2-143.7 28.9-257 141.7-286.8 285.1l115.5 115.5c143.3-29.9 256.2-143.1 285-286.8 4.7-23.5 7.2-47.9 7.2-72.8V0h-48.1z" fill="#f2705b"/><path d="M397.55 110.5c-31.4-31.4-82.3-31.4-113.7 0-15.7 15.7-23.6 36.3-23.5 56.9.1 20.5 7.9 41.1 23.5 56.7 15.6 15.6 36.1 23.5 56.6 23.6 20.7.1 41.3-7.8 57-23.6 31.5-31.3 31.5-82.2.1-113.6z" fill="#fff"/><circle cx="340.75" cy="167.3" r="53.5" fill="#89d6f7"/><path d="M500.85 120.9L387.15 7.2c23.5-4.7 47.8-7.2 72.8-7.2h48.1v48.1c0 24.9-2.5 49.3-7.2 72.8z" fill="#334a5e"/></svg><svg viewBox="0 0 508.1 508.1" id="rocket" xmlns="http://www.w3.org/2000/svg"><path d="M150.15 483.1s11.5-10.4 10.9-32.8c0 0-49.7 46.8-86.5 50.8 0 0-2.9-10.9 6.9-33.9 0 0-37.7 7.1-54.7 13.9 6.9-16.8 14-54.5 14-54.5-22.9 9.9-33.9 6.9-33.9 6.9 4-36.8 50.8-86.5 50.8-86.5-22.4-.5-32.8 10.9-32.8 10.9-11.6-65.2 75.5-65.6 75.5-65.6l115.3 115.3c.1.1-.4 87-65.5 75.5z" fill="#f6b44b"/><path d="M103.65 295.6c-13.8.9-41.2 5.7-54.1 21.2-3.8 4.5-6.1 9.7-7.1 15.6 6.1-2.1 13.7-3.7 23-3.5l23.7.6-16.2 17.3c-10.6 11.2-36.1 42.2-45 68 4.2-.9 9.6-2.5 16.2-5.4l18.2-7.8-3.7 19.5c-.2 1.1-3.7 19.4-8.2 36.5 17-4.5 35.4-7.9 36.5-8.1l19.5-3.7-7.8 18.2c-2.8 6.6-4.5 12-5.4 16.2 25.8-9 56.8-34.5 68-45l17.3-16.2.6 23.7c.2 9.3-1.3 16.9-3.4 23 5.9-1 11-3.3 15.5-7.1 16.8-14 20.4-43.2 21.2-54.2l-108.8-108.8z" fill="#ffd15c"/><path d="M305.45 202.6c-42.8-42.8-101.7-59.5-157.1-50.2-35.6 6-69.7 22.7-97.1 50.2C21.85 232 4.85 269.1.05 307.4c2.2-2.6 4.6-5.3 7.2-7.8 25.1-25.1 57.2-38.8 90.1-41.2 39.8-3 80.7 10.8 111.2 41.2s44.2 71.3 41.2 111.2c-2.4 32.8-16.1 65-41.2 90.1-2.5 2.5-5.2 4.9-7.8 7.2 38.3-4.8 75.4-21.8 104.8-51.2 27.5-27.5 44.2-61.6 50.2-97.1 9.2-55.5-7.6-114.5-50.3-157.2z" fill="#41596b"/><path d="M459.95 0c-24.9 0-49.3 2.5-72.8 7.2-143.7 28.9-257 141.7-286.8 285.1l115.5 115.5c143.3-29.9 256.2-143.1 285-286.8 4.7-23.5 7.2-47.9 7.2-72.8V0h-48.1z" fill="#f2705b"/><path d="M397.55 110.5c-31.4-31.4-82.3-31.4-113.7 0-15.7 15.7-23.6 36.3-23.5 56.9.1 20.5 7.9 41.1 23.5 56.7 15.6 15.6 36.1 23.5 56.6 23.6 20.7.1 41.3-7.8 57-23.6 31.5-31.3 31.5-82.2.1-113.6z" fill="#fff"/><circle cx="340.75" cy="167.3" r="53.5" fill="#89d6f7"/><path d="M500.85 120.9L387.15 7.2c23.5-4.7 47.8-7.2 72.8-7.2h48.1v48.1c0 24.9-2.5 49.3-7.2 72.8z" fill="#334a5e"/></svg></svg>